<?xml version="1.0"?>
<svg version="1.1" xmlns="http://www.w3.org/2000/svg" width="400px" height="200px" style="border: dashed 2px #aaa"><path fill="#" d="M52.53173828125,116.31103515625q0-1.70166015625,0.99609375-2.926025390625t2.427978515625-1.9921875t3.133544921875-1.141357421875t3.154296875-0.37353515625q1.12060546875,0,2.98828125,0.33203125t3.65234375,0.99609375t3.092041015625,1.7431640625t1.307373046875,2.53173828125q0,0.6640625-0.498046875,1.182861328125t-1.03759765625,0.518798828125q-1.12060546875,0-2.03369140625-0.726318359375t-1.888427734375-1.53564453125t-2.137451171875-1.53564453125t-2.61474609375-0.726318359375t-2.635498046875,0.933837890625t-1.182861328125,2.469482421875q0,2.53173828125,1.78466796875,4.959716796875t3.922119140625,5.10498046875t3.922119140625,5.623779296875t1.78466796875,6.51611328125q0,1.53564453125-0.643310546875,2.593994140625t-1.70166015625,1.722412109375t-2.386474609375,1.016845703125t-2.5732421875,0.352783203125q-1.36962890625,0-3.19580078125-0.643310546875t-3.44482421875-1.70166015625t-2.718505859375-2.469482421875t-1.099853515625-2.94677734375q0-0.7470703125,1.058349609375-0.95458984375t1.556396484375-0.20751953125q0.2490234375,0,0.767822265625,0.166015625t1.016845703125,0.37353515625t0.892333984375,0.45654296875t0.311279296875,0.53955078125q0.4150390625,0.498046875,1.265869140625,1.473388671875t1.70166015625,1.5771484375t1.494140625,0.435791015625t0.643310546875-1.86767578125q0-3.2373046875-1.7431640625-5.955810546875t-3.797607421875-5.3125t-3.797607421875-5.146484375t-1.7431640625-5.457763671875z M81.778295898437,143.86962890625l0.87158203125-1.03759765625q-0.166015625-6.97265625-0.37353515625-13.90380859375t-0.20751953125-13.779296875q0-8.50830078125,1.016845703125-16.456298828125t2.012939453125-16.290283203125q0.0830078125-0.498046875,0.477294921875-0.809326171875t0.975341796875-0.518798828125t1.182861328125-0.29052734375t1.099853515625-0.0830078125q0.6640625,0,1.66015625,0.2490234375t1.9921875,1.45263671875q0,0.4150390625,0.062255859375,0.726318359375t0.062255859375,0.726318359375q0,3.154296875-0.850830078125,6.76513671875t-1.141357421875,6.93115234375q-0.33203125,4.0673828125-0.45654296875,8.0517578125t-0.12451171875,8.09326171875l0.0830078125,3.65234375q0.830078125-1.03759765625,2.36572265625-2.65625t3.3203125-3.133544921875t3.5693359375-2.593994140625t3.2373046875-1.0791015625q2.19970703125,0,3.050537109375,1.2451171875t0.850830078125,3.27880859375q0,1.86767578125-0.809326171875,3.9013671875t-2.11669921875,3.963623046875t-2.967529296875,3.465576171875t-3.27880859375,2.28271484375q2.19970703125,2.7392578125,4.503173828125,5.2294921875t5.042724609375,4.68994140625l0,0.95458984375q-0.0830078125,0.4150390625-0.518798828125,0.62255859375t-0.95458984375,0.33203125t-1.016845703125,0.186767578125t-0.830078125,0.062255859375q-2.03369140625,0-3.922119140625-1.20361328125t-3.52783203125-2.94677734375t-3.092041015625-3.69384765625t-2.65625-3.4033203125q0.2490234375,4.77294921875,0.560302734375,9.525146484375t0.311279296875,9.525146484375q0,0.5810546875-0.518798828125,0.975341796875t-1.20361328125,0.601806640625t-1.390380859375,0.29052734375t-1.162109375,0.0830078125q-2.44873046875,0-3.465576171875-0.892333984375t-1.722412109375-3.092041015625z M90.286596679687,124.3212890625q1.03759765625,0,2.469482421875-0.892333984375t2.967529296875-2.220458984375t2.86376953125-2.801513671875t2.137451171875-2.801513671875t0.809326171875-2.137451171875t-1.12060546875-0.726318359375q-0.4150390625,0-1.70166015625,1.20361328125t-2.86376953125,2.94677734375t-3.154296875,3.77685546875t-2.4072265625,3.65234375z M115.38276367187,126.02294921875q0-3.818359375,0.892333984375-7.491455078125t1.514892578125-7.325439453125q0.166015625-0.95458984375,1.307373046875-1.182861328125t1.929931640625-0.228271484375q1.36962890625,0,2.19970703125,0.4150390625q0.33203125,0.166015625,0.62255859375,0.37353515625t0.29052734375,0.53955078125q0,3.5693359375-0.850830078125,6.97265625t-0.850830078125,7.2216796875q0,1.28662109375,0.186767578125,2.427978515625t0.352783203125,2.261962890625l0.2490234375,1.20361328125q0,0.33203125,0.04150390625,0.5810546875t0.12451171875,0.5810546875q0,0.7470703125-1.058349609375,1.016845703125t-1.846923828125,0.269775390625q-1.20361328125,0-2.220458984375-0.477294921875t-1.597900390625-1.639404296875l-0.5810546875-1.20361328125q-0.498046875-0.95458984375-0.498046875-2.137451171875t-0.20751953125-2.178955078125z M118.03901367187,101.03759765625l0-0.78857421875q0-1.95068359375,0.975341796875-3.486328125t2.926025390625-1.53564453125q0.2490234375,0,0.477294921875,0.04150390625t0.477294921875,0.04150390625q0.498046875,0.0830078125,1.307373046875,0.394287109375t0.809326171875,0.975341796875l0,0.0830078125q-0.166015625,0.33203125-0.20751953125,0.684814453125t-0.20751953125,0.601806640625l0.0830078125-0.0830078125q-0.498046875,1.28662109375-0.809326171875,2.0751953125t-0.684814453125,1.265869140625t-0.933837890625,0.684814453125t-1.597900390625,0.20751953125q-0.166015625,0-0.5810546875-0.04150390625t-0.892333984375-0.166015625t-0.809326171875-0.33203125t-0.33203125-0.62255859375z M149.6791015625,114.94140625q0-2.9052734375,0.269775390625-7.5537109375t0.643310546875-9.58740234375t0.933837890625-9.359130859375t1.224365234375-6.785888671875q0.2490234375-1.03759765625,1.182861328125-1.2451171875t1.888427734375-0.20751953125q1.28662109375,0,2.220458984375,0.45654296875t0.933837890625,1.9921875q0,7.5537109375-0.933837890625,15.128173828125t-1.016845703125,15.128173828125q1.28662109375-1.95068359375,3.3203125-2.926025390625t4.31640625-0.975341796875q3.154296875,0,5.43701171875,1.28662109375t3.69384765625,3.3203125t2.095947265625,4.710693359375t0.684814453125,5.457763671875q0,1.53564453125-0.311279296875,3.839111328125t-0.933837890625,4.85595703125t-1.5771484375,5.0634765625t-2.261962890625,4.503173828125t-3.009033203125,3.216552734375t-3.7353515625,1.224365234375q-0.4150390625,0-1.099853515625-0.12451171875t-1.36962890625-0.37353515625t-1.141357421875-0.643310546875t-0.45654296875-0.975341796875q0-0.6640625,0.809326171875-0.933837890625t1.307373046875-0.269775390625q1.86767578125-0.830078125,3.3203125-3.465576171875t2.427978515625-5.789794921875t1.473388671875-6.246337890625t0.498046875-5.042724609375q0-1.12060546875-0.33203125-2.98828125t-1.016845703125-3.69384765625t-1.86767578125-3.154296875t-2.801513671875-1.328125q-1.95068359375,0-3.11279296875,2.012939453125t-1.826171875,4.68994140625t-0.892333984375,5.52001953125t-0.228271484375,4.461669921875q0,1.03759765625,0.352783203125,2.054443359375t0.809326171875,2.03369140625t0.809326171875,2.0751953125t0.352783203125,2.095947265625q0,0.498046875-0.435791015625,0.830078125t-1.016845703125,0.53955078125t-1.224365234375,0.269775390625t-0.975341796875,0.062255859375q-2.36572265625,0-3.27880859375-1.12060546875t-1.5771484375-3.154296875q-1.45263671875-4.60693359375-2.012939453125-9.359130859375t-0.560302734375-9.525146484375z M183.36657714844,123.36669921875q0-0.830078125,0.186767578125-2.19970703125t0.435791015625-2.718505859375t0.5810546875-2.510986328125t0.78857421875-1.494140625q0.33203125-0.33203125,1.141357421875-0.6640625t1.70166015625-0.477294921875t1.66015625,0.12451171875t0.933837890625,1.099853515625q-0.5810546875,0.7470703125-1.058349609375,2.552490234375t-0.726318359375,4.005126953125q-0.20751953125,1.86767578125-0.20751953125,3.85986328125l0,0.70556640625q0.04150390625,2.32421875,0.4150390625,4.27490234375t1.141357421875,3.216552734375t2.137451171875,1.265869140625q2.9052734375,0,5.3125-2.677001953125t4.27490234375-6.536865234375t3.27880859375-8.197021484375t2.4072265625-7.574462890625q0.2490234375-0.95458984375,1.182861328125-1.28662109375t2.012939453125-0.228271484375t1.929931640625,0.518798828125t1.016845703125,0.99609375q-0.830078125,6.97265625-1.307373046875,13.9453125t-0.477294921875,14.0283203125q0,1.36962890625,0.12451171875,2.510986328125t-0.12451171875,1.95068359375t-1.099853515625,1.28662109375t-2.718505859375,0.477294921875q-0.4150390625,0-1.058349609375-0.0830078125t-1.328125-0.269775390625t-1.162109375-0.560302734375t-0.477294921875-0.87158203125q0-3.0712890625,0.228271484375-6.30859375t0.643310546875-6.26708984375q-1.12060546875,1.61865234375-2.469482421875,3.216552734375t-2.967529296875,2.884521484375t-3.486328125,2.054443359375t-4.02587890625,0.767822265625q-3.0712890625,0-4.835205078125-1.45263671875t-2.65625-3.631591796875t-1.12060546875-4.752197265625t-0.228271484375-4.98046875z M222.51181640625,116.62231445312q-0.103759765625-1.390380859375,0.166015625-2.552490234375t1.0791015625-1.888427734375t2.593994140625-0.726318359375q0.4150390625,0,1.016845703125,0.103759765625t1.182861328125,0.269775390625t0.975341796875,0.498046875t0.394287109375,0.9130859375l0,4.68994140625q1.61865234375-1.86767578125,3.52783203125-2.677001953125t4.35791015625-0.809326171875q1.86767578125,0,3.69384765625,0.850830078125t3.44482421875,2.261962890625t2.801513671875,3.11279296875t1.722412109375,3.4033203125q0.33203125-1.53564453125,0.7470703125-3.756103515625t1.224365234375-4.254150390625t2.137451171875-3.486328125t3.52783203125-1.45263671875q2.36572265625,0,3.984375,1.70166015625t2.635498046875,4.420166015625t1.53564453125,6.080322265625t0.767822265625,6.640625t0.2490234375,6.121826171875l0,4.461669921875q0,0.498046875-0.37353515625,0.809326171875t-0.933837890625,0.477294921875t-1.162109375,0.20751953125t-0.933837890625,0.04150390625q-1.28662109375,0-2.344970703125-0.394287109375t-1.058349609375-2.012939453125l0-3.7353515625t-0.0830078125-4.835205078125t-0.29052734375-5.18798828125t-0.53955078125-4.710693359375t-0.850830078125-3.4033203125t-1.265869140625-1.328125q-1.03759765625,0-1.494140625,1.162109375t-0.767822265625,2.94677734375t-0.477294921875,3.77685546875t-0.45654296875,3.77685546875t-0.933837890625,2.926025390625t-1.763916015625,1.141357421875q-1.20361328125,0-2.11669921875-1.141357421875t-1.805419921875-2.843017578125t-1.78466796875-3.65234375t-1.971435546875-3.65234375q-1.0791015625-1.7431640625-2.32421875-2.822265625q-1.12060546875-1.03759765625-2.53173828125-0.99609375l-0.20751953125,0q-1.86767578125,0.0830078125-2.926025390625,1.348876953125t-1.61865234375,3.092041015625t-0.684814453125,3.922119140625t-0.12451171875,3.673095703125q0,1.494140625,0.2490234375,3.486328125q0.166015625,1.328125,0.166015625,2.53173828125q0,0.62255859375-0.04150390625,1.20361328125q-0.12451171875,1.7431640625-0.933837890625,2.926025390625t-3.009033203125,1.182861328125q-0.830078125,0-2.0751953125-0.166015625t-1.66015625-1.12060546875q-0.95458984375-1.70166015625-1.45263671875-4.295654296875t-0.7470703125-5.35400390625t-0.29052734375-5.478515625t-0.04150390625-4.669189453125q0-1.36962890625-0.103759765625-2.760009765625z"/><path fill="#" d=""/></svg>
